<svg xmlns="http://www.w3.org/2000/svg" width="41" height="11" viewBox="0 0 41 11"><path d="M2.93 6.07h1.75V4H2.93V1.45H.5V7c0 2.49 1.18 3.87 4.2 3.68v-2.1C3.33 8.68 2.94 8.2 2.93 7v-.92Zm7.14 4.73c1 0 1.87-.32 2.52-.86a3.37 3.37 0 0 0 1.25-2.63c0-1.96-1.6-3.48-3.77-3.48-2.15 0-3.76 1.52-3.76 3.48 0 1.95 1.6 3.49 3.76 3.49Zm0-2.14c-.75 0-1.35-.56-1.35-1.33S9.32 6 10.08 6c.75 0 1.35.56 1.35 1.33s-.6 1.33-1.35 1.33Zm7.99 1.94V.3h-2.43v10.3h2.43Zm6.98-3.4L27.99 4h-3.01l-2.29 2.73V.3h-2.43V10.6h2.43V7.74l2.32 2.86h3.08l-3.05-3.4Zm5.4-4.37c.4 0 .75-.14 1.02-.38.28-.25.45-.6.45-1.03 0-.83-.66-1.42-1.47-1.42-.81 0-1.47.59-1.47 1.42s.66 1.41 1.47 1.41Zm4.4 0c.39 0 .75-.14 1.01-.38.28-.25.45-.6.45-1.03C36.3.59 35.64 0 34.83 0c-.81 0-1.47.59-1.47 1.42s.66 1.41 1.47 1.41Zm4.38 0c.4 0 .76-.14 1.02-.38.28-.25.45-.6.45-1.03C40.7.59 40.03 0 39.22 0c-.81 0-1.47.59-1.47 1.42s.66 1.41 1.47 1.41Zm-7.58 7.77.02-6.6h-2.44v6.6h2.42Z"/></svg>